<mxfile host="app.diagrams.net" agent="Mozilla/5.0 (Macintosh; Intel Mac OS X 10_15_7) AppleWebKit/537.36 (KHTML, like Gecko) Chrome/130.0.0.0 Safari/537.36" version="24.8.6">
  <diagram name="Page-1" id="g_BRfAgkNGZkdLrCCxiZ">
    <mxGraphModel dx="2117" dy="795" grid="1" gridSize="10" guides="1" tooltips="1" connect="1" arrows="1" fold="1" page="1" pageScale="1" pageWidth="827" pageHeight="1169" math="0" shadow="0">
      <root>
        <mxCell id="0" />
        <mxCell id="1" parent="0" />
        <mxCell id="RckO6Ids9fdYp6XNJWDH-46" value="gameforge_creation_request" style="swimlane;whiteSpace=wrap;html=1;" vertex="1" parent="1">
          <mxGeometry x="-760" y="40" width="280" height="400" as="geometry" />
        </mxCell>
        <mxCell id="RckO6Ids9fdYp6XNJWDH-47" value="&lt;blockquote style=&quot;margin: 0 0 0 40px; border: none; padding: 0px;&quot;&gt;&lt;div&gt;id_creation_jeu_demande&lt;/div&gt;&lt;div&gt;nom&lt;/div&gt;&lt;div&gt;url&lt;/div&gt;&lt;div&gt;nb_joueurs&lt;/div&gt;&lt;div&gt;client&lt;/div&gt;&lt;div&gt;nom_rep_cdn&lt;/div&gt;&lt;div&gt;is_gestion_certificat_fs&lt;/div&gt;&lt;div&gt;is_achat_domaine_fs&lt;/div&gt;&lt;div&gt;is_reprise_jeu&lt;/div&gt;&lt;div&gt;reprise_identity&lt;/div&gt;&lt;div&gt;is_gestion_domaine_fs&lt;/div&gt;&lt;div&gt;is_email_fs&lt;/div&gt;&lt;div&gt;is_bdd_exist&lt;/div&gt;&lt;div&gt;type_jeu&lt;/div&gt;&lt;div&gt;id_joueur_demandeur&lt;/div&gt;&lt;div&gt;id_joueur_valid&lt;/div&gt;&lt;div&gt;serveur_front_api&lt;/div&gt;&lt;div&gt;serveur_bdd&lt;/div&gt;&lt;div&gt;demande_informations&lt;/div&gt;&lt;div&gt;identity&lt;/div&gt;&lt;div&gt;commentaire&lt;/div&gt;&lt;div&gt;statut&lt;/div&gt;&lt;div&gt;date_creation&lt;/div&gt;&lt;div&gt;id_template&lt;/div&gt;&lt;div&gt;is_auto&lt;/div&gt;&lt;/blockquote&gt;" style="whiteSpace=wrap;html=1;align=left;" vertex="1" parent="RckO6Ids9fdYp6XNJWDH-46">
          <mxGeometry y="23" width="280" height="377" as="geometry" />
        </mxCell>
        <mxCell id="RckO6Ids9fdYp6XNJWDH-50" value="creationjeu_action" style="swimlane;whiteSpace=wrap;html=1;" vertex="1" parent="1">
          <mxGeometry x="-410" y="40" width="280" height="190" as="geometry" />
        </mxCell>
        <mxCell id="RckO6Ids9fdYp6XNJWDH-51" value="&lt;blockquote style=&quot;margin: 0 0 0 40px; border: none; padding: 0px;&quot;&gt;&lt;div&gt;id&lt;/div&gt;&lt;div&gt;nom&lt;/div&gt;&lt;div&gt;etape&lt;/div&gt;&lt;div&gt;ordre&lt;/div&gt;&lt;div&gt;help&lt;/div&gt;&lt;div&gt;is_technique&lt;/div&gt;&lt;div&gt;visibility_condition&lt;/div&gt;&lt;div&gt;action&lt;/div&gt;&lt;div&gt;input_action&lt;/div&gt;&lt;div&gt;code&lt;/div&gt;&lt;div&gt;is_auto&lt;/div&gt;&lt;/blockquote&gt;" style="whiteSpace=wrap;html=1;align=left;" vertex="1" parent="RckO6Ids9fdYp6XNJWDH-50">
          <mxGeometry y="23" width="280" height="167" as="geometry" />
        </mxCell>
        <mxCell id="RckO6Ids9fdYp6XNJWDH-53" value="creationjeu_demande_action" style="swimlane;whiteSpace=wrap;html=1;" vertex="1" parent="1">
          <mxGeometry x="-400" y="340" width="280" height="130" as="geometry" />
        </mxCell>
        <mxCell id="RckO6Ids9fdYp6XNJWDH-54" value="&lt;blockquote style=&quot;margin: 0 0 0 40px; border: none; padding: 0px;&quot;&gt;&lt;div&gt;id_creation_jeu_demande_action&lt;/div&gt;&lt;div&gt;id_creation_jeu_demande&lt;/div&gt;&lt;div&gt;id_creation_jeu_action&lt;/div&gt;&lt;div&gt;statut&lt;/div&gt;&lt;div&gt;id_joueur&lt;/div&gt;&lt;div&gt;informations&lt;/div&gt;&lt;/blockquote&gt;" style="whiteSpace=wrap;html=1;align=left;" vertex="1" parent="RckO6Ids9fdYp6XNJWDH-53">
          <mxGeometry y="23" width="280" height="107" as="geometry" />
        </mxCell>
        <mxCell id="RckO6Ids9fdYp6XNJWDH-55" value="creationjeu_demande_message" style="swimlane;whiteSpace=wrap;html=1;" vertex="1" parent="1">
          <mxGeometry x="-740" y="470" width="280" height="130" as="geometry" />
        </mxCell>
        <mxCell id="RckO6Ids9fdYp6XNJWDH-56" value="&lt;blockquote style=&quot;margin: 0 0 0 40px; border: none; padding: 0px;&quot;&gt;&lt;div&gt;id_demande_message&lt;/div&gt;&lt;div&gt;id_creationjeu_demande&lt;/div&gt;&lt;div&gt;id_joueur&lt;/div&gt;&lt;div&gt;statut&lt;/div&gt;&lt;div&gt;message&lt;/div&gt;&lt;div&gt;date_creation&lt;/div&gt;&lt;/blockquote&gt;" style="whiteSpace=wrap;html=1;align=left;" vertex="1" parent="RckO6Ids9fdYp6XNJWDH-55">
          <mxGeometry y="23" width="280" height="107" as="geometry" />
        </mxCell>
        <mxCell id="RckO6Ids9fdYp6XNJWDH-57" value="creationjeu_ressource" style="swimlane;whiteSpace=wrap;html=1;" vertex="1" parent="1">
          <mxGeometry x="-390" y="580" width="280" height="120" as="geometry" />
        </mxCell>
        <mxCell id="RckO6Ids9fdYp6XNJWDH-58" value="&lt;blockquote style=&quot;margin: 0 0 0 40px; border: none; padding: 0px;&quot;&gt;&lt;div&gt;id_creationjeu_ressource&lt;/div&gt;&lt;div&gt;id_creationjeu_demande&lt;/div&gt;&lt;div&gt;type&lt;/div&gt;&lt;div&gt;information&lt;/div&gt;&lt;/blockquote&gt;" style="whiteSpace=wrap;html=1;align=left;" vertex="1" parent="RckO6Ids9fdYp6XNJWDH-57">
          <mxGeometry y="23" width="280" height="97" as="geometry" />
        </mxCell>
      </root>
    </mxGraphModel>
  </diagram>
</mxfile>
